<svg width="19" height="19" viewBox="0 0 19 19" fill="none" xmlns="http://www.w3.org/2000/svg">
<path d="M13.3158 1.58331H5.68413C3.99788 1.58331 2.6283 2.96081 2.6283 4.63915V15.7937C2.6283 17.2187 3.64955 17.8204 4.90038 17.1316L8.76371 14.9862C9.17538 14.7566 9.84038 14.7566 10.2441 14.9862L14.1075 17.1316C15.3583 17.8283 16.3795 17.2266 16.3795 15.7937V4.63915C16.3716 2.96081 15.002 1.58331 13.3158 1.58331ZM11.8829 7.71873C11.115 7.99581 10.3075 8.13831 9.49996 8.13831C8.69246 8.13831 7.88496 7.99581 7.11705 7.71873C6.8083 7.6079 6.64996 7.26748 6.7608 6.95873C6.87955 6.64998 7.21996 6.49165 7.52871 6.60248C8.8033 7.06165 10.2045 7.06165 11.4791 6.60248C11.7879 6.49165 12.1283 6.64998 12.2391 6.95873C12.35 7.26748 12.1916 7.6079 11.8829 7.71873Z" fill="#92929D" fill-opacity="0.7"/>
</svg>