<svg width="64" height="64" viewBox="0 0 64 64" fill="none" xmlns="http://www.w3.org/2000/svg">
<path d="M0 8.53333C0 3.8205 3.8205 0 8.53333 0H55.4667C60.1795 0 64 3.8205 64 8.53333V55.4667C64 60.1795 60.1795 64 55.4667 64H8.53333C3.8205 64 0 60.1795 0 55.4667V8.53333Z" fill="#3080E3"/>
<path d="M35.7898 33.8544C35.7898 30.01 38.9063 26.8935 42.7507 26.8935C46.595 26.8935 49.7115 30.01 49.7115 33.8544V35.5758C49.7115 39.4201 46.595 42.5366 42.7507 42.5366C38.9063 42.5366 35.7898 39.4201 35.7898 35.5758V33.8544Z" fill="#F4F4F4"/>
<path fill-rule="evenodd" clip-rule="evenodd" d="M30.3946 34.9451V12.7452H32.5889V12.1125H14.2886V12.7452H16.4729V37.0294C16.3879 44.4038 21.2022 57.221 41.1398 49.494C34.5883 49.494 30.3946 46.9441 30.3946 34.9451Z" fill="#F4F4F4"/>
</svg>
