<svg width="20" height="20" viewBox="0 0 20 20" fill="none" xmlns="http://www.w3.org/2000/svg">
<path fill-rule="evenodd" clip-rule="evenodd" d="M10.0002 9.16626C9.311 9.16626 8.75016 8.60542 8.75016 7.91626C8.75016 7.22709 9.311 6.66625 10.0002 6.66625C10.6893 6.66625 11.2502 7.22709 11.2502 7.91626C11.2502 8.60542 10.6893 9.16626 10.0002 9.16626M10.0002 4.99959C8.39183 4.99959 7.0835 6.30792 7.0835 7.91626C7.0835 9.52459 8.39183 10.8329 10.0002 10.8329C11.6085 10.8329 12.9168 9.52459 12.9168 7.91626C12.9168 6.30792 11.6085 4.99959 10.0002 4.99959M10.0002 16.3717C8.60433 15.0517 5.00016 11.3458 5.00016 8.26834C5.00016 5.5475 7.24266 3.33334 10.0002 3.33334C12.7577 3.33334 15.0002 5.5475 15.0002 8.26834C15.0002 11.3458 11.396 15.0517 10.0002 16.3717M10.0002 1.66667C6.32433 1.66667 3.3335 4.62751 3.3335 8.26834C3.3335 12.8308 9.20766 17.9175 9.45766 18.1317C9.61433 18.2658 9.80683 18.3333 10.0002 18.3333C10.1935 18.3333 10.386 18.2658 10.5427 18.1317C10.7927 17.9175 16.6668 12.8308 16.6668 8.26834C16.6668 4.62751 13.676 1.66667 10.0002 1.66667" fill="#92929D" fill-opacity="0.8"/>
</svg>
